<svg width="12" height="10" viewBox="0 0 12 10" fill="none" xmlns="http://www.w3.org/2000/svg">
<path d="M11.9999 4.99979C11.9999 5.1324 11.9472 5.25958 11.8535 5.35334C11.7597 5.44711 11.6325 5.49979 11.4999 5.49979H1.70678L5.35366 9.14604C5.40011 9.1925 5.43696 9.24765 5.4621 9.30834C5.48724 9.36904 5.50018 9.43409 5.50018 9.49979C5.50018 9.56549 5.48724 9.63054 5.4621 9.69124C5.43696 9.75194 5.40011 9.80709 5.35366 9.85354C5.3072 9.9 5.25205 9.93684 5.19135 9.96199C5.13066 9.98713 5.0656 10.0001 4.99991 10.0001C4.93421 10.0001 4.86915 9.98713 4.80846 9.96199C4.74776 9.93684 4.69261 9.9 4.64615 9.85354L0.146155 5.35354C0.0996668 5.3071 0.0627873 5.25196 0.0376252 5.19126C0.012463 5.13056 -0.000488281 5.0655 -0.000488281 4.99979C-0.000488281 4.93408 0.012463 4.86902 0.0376252 4.80832C0.0627873 4.74762 0.0996668 4.69248 0.146155 4.64604L4.64615 0.14604C4.73997 0.0522194 4.86722 -0.000488282 4.99991 -0.000488281C5.13259 -0.00048828 5.25984 0.0522194 5.35366 0.14604C5.44748 0.23986 5.50018 0.367108 5.50018 0.49979C5.50018 0.632472 5.44748 0.759719 5.35366 0.85354L1.70678 4.49979H11.4999C11.6325 4.49979 11.7597 4.55247 11.8535 4.64624C11.9472 4.74 11.9999 4.86718 11.9999 4.99979Z" fill="#106AA3"/>
</svg>
