<?xml version="1.0" encoding="UTF-8" standalone="no"?><!DOCTYPE svg PUBLIC "-//W3C//DTD SVG 1.1//EN" "http://www.w3.org/Graphics/SVG/1.1/DTD/svg11.dtd"><svg width="100%" height="100%" viewBox="0 0 46 46" version="1.1" xmlns="http://www.w3.org/2000/svg" xmlns:xlink="http://www.w3.org/1999/xlink" xml:space="preserve" xmlns:serif="http://www.serif.com/" style="fill-rule:evenodd;clip-rule:evenodd;stroke-linejoin:round;stroke-miterlimit:2;"><path d="M23,0c-12.691,0 -23,10.309 -23,23c0,12.691 10.309,23 23,23c12.691,0 23,-10.309 23,-23c0,-12.691 -10.309,-23 -23,-23Zm0,2c11.61,0 21,9.39 21,21c0,11.61 -9.39,21 -21,21c-11.61,0 -21,-9.39 -21,-21c0,-11.61 9.39,-21 21,-21Zm0,7c-1.646,0 -3,1.354 -3,3c0,1.646 1.354,3 3,3c1.646,0 3,-1.354 3,-3c0,-1.646 -1.354,-3 -3,-3Zm-4,10l0,2l2,0l0,13l-2,0l0,2l8,0l0,-2l-2,0l0,-15l-6,0Z" style="fill:#106aa3;fill-rule:nonzero;"/></svg>