<?xml version="1.0" encoding="UTF-8" standalone="no"?><!DOCTYPE svg PUBLIC "-//W3C//DTD SVG 1.1//EN" "http://www.w3.org/Graphics/SVG/1.1/DTD/svg11.dtd"><svg width="100%" height="100%" viewBox="0 0 16 16" version="1.1" xmlns="http://www.w3.org/2000/svg" xmlns:xlink="http://www.w3.org/1999/xlink" xml:space="preserve" xmlns:serif="http://www.serif.com/" style="fill-rule:evenodd;clip-rule:evenodd;stroke-linejoin:round;stroke-miterlimit:2;"><path d="M5.5,7c-0.274,0 -0.5,0.226 -0.5,0.5c0,0.274 0.226,0.5 0.5,0.5l5,0c0.274,0 0.5,-0.226 0.5,-0.5c0,-0.274 -0.226,-0.5 -0.5,-0.5l-5,0Zm-0.5,2.5c0,-0.274 0.226,-0.5 0.5,-0.5l5,0c0.274,0 0.5,0.226 0.5,0.5c0,0.274 -0.226,0.5 -0.5,0.5l-5,0c-0.274,0 -0.5,-0.226 -0.5,-0.5Zm0,2c0,-0.274 0.226,-0.5 0.5,-0.5l2,0c0.274,0 0.5,0.226 0.5,0.5c0,0.274 -0.226,0.5 -0.5,0.5l-2,0c-0.274,0 -0.5,-0.226 -0.5,-0.5Z" style="fill:#e35100;fill-rule:nonzero;"/><path d="M9.5,0l-5.5,0c-1.097,0 -2,0.903 -2,2l0,12c0,1.097 0.903,2 2,2l8,0c1.097,0 2,-0.903 2,-2l0,-9.5l-4.5,-4.5Zm0,1l0,2c0,0.823 0.677,1.5 1.5,1.5l2,0l0,9.5c0,0.549 -0.451,1 -1,1l-8,0c-0.549,0 -1,-0.451 -1,-1l0,-12c0,-0.549 0.451,-1 1,-1l5.5,0Z" style="fill:#e35100;fill-rule:nonzero;"/></svg>