<svg width="64" height="64" viewBox="0 0 64 64" fill="none" xmlns="http://www.w3.org/2000/svg">
<path d="M59.6601 8.34001C58.9172 7.59695 58.0352 7.00751 57.0644 6.60535C56.0937 6.2032 55.0533 5.99622 54.0026 5.99622C52.9518 5.99622 51.9114 6.2032 50.9407 6.60535C49.9699 7.00751 49.088 7.59695 48.3451 8.34001C47.602 9.0829 47.0126 9.96489 46.6104 10.9356C46.2083 11.9063 46.0013 12.9468 46.0013 13.9975C46.0013 15.0482 46.2083 16.0887 46.6104 17.0594C47.0126 18.0301 47.602 18.9121 48.3451 19.655C48.4176 19.7275 48.4951 19.7975 48.5701 19.8675L41.9126 32.2325C39.8828 31.7375 37.7401 32.0513 35.9376 33.1075L30.8926 28.0625C31.8851 26.385 32.231 24.4027 31.8654 22.4882C31.4997 20.5736 30.4477 18.8584 28.9068 17.6646C27.3659 16.4709 25.4422 15.8808 23.497 16.0052C21.5518 16.1295 19.7189 16.9598 18.3426 18.34C17.5995 19.0829 17.0101 19.9649 16.6079 20.9356C16.2058 21.9063 15.9988 22.9468 15.9988 23.9975C15.9988 25.0482 16.2058 26.0887 16.6079 27.0594C17.0101 28.0301 17.5995 28.9121 18.3426 29.655C18.4151 29.7275 18.4901 29.7975 18.5651 29.8675L11.9076 42.235C10.5712 41.9061 9.17263 41.9275 7.84697 42.2971C6.52131 42.6667 5.31343 43.3721 4.34006 44.345C3.22143 45.4639 2.45968 46.8894 2.15115 48.4412C1.84261 49.993 2.00115 51.6014 2.6067 53.0631C3.21226 54.5248 4.23764 55.7741 5.55319 56.6531C6.86874 57.5321 8.41539 58.0012 9.99756 58.0012C11.5797 58.0012 13.1264 57.5321 14.4419 56.6531C15.7575 55.7741 16.7829 54.5248 17.3884 53.0631C17.994 51.6014 18.1525 49.993 17.844 48.4412C17.5354 46.8894 16.7737 45.4639 15.6551 44.345C15.5826 44.2725 15.5051 44.2025 15.4301 44.1325L22.0876 31.7675C22.7135 31.9208 23.3556 31.9989 24.0001 32C25.4284 32.0018 26.8311 31.6211 28.0626 30.8975L33.1076 35.9425C32.348 37.2315 31.9652 38.7077 32.0026 40.2034C32.0399 41.6991 32.4959 43.1543 33.3188 44.4038C34.1417 45.6533 35.2985 46.647 36.6578 47.2721C38.0171 47.8972 39.5245 48.1285 41.0087 47.9399C42.4929 47.7513 43.8945 47.1502 45.0542 46.205C46.2139 45.2598 47.0854 44.0083 47.5696 42.5926C48.0537 41.177 48.1312 39.654 47.7933 38.1965C47.4553 36.739 46.7154 35.4056 45.6576 34.3475C45.5851 34.275 45.5101 34.205 45.4351 34.135L52.0926 21.77C52.717 21.9222 53.3573 21.9995 54.0001 22C55.582 21.9998 57.1283 21.5305 58.4436 20.6516C59.7589 19.7727 60.7841 18.5236 61.3896 17.0621C61.9951 15.6007 62.1538 13.9925 61.8455 12.4409C61.5372 10.8893 60.7758 9.46396 59.6576 8.34501L59.6601 8.34001ZM12.8251 52.8325C12.0745 53.5827 11.0566 54.0041 9.99543 54.0038C8.93421 54.0036 7.91654 53.5818 7.16631 52.8313C6.41608 52.0807 5.99474 51.0628 5.99497 50.0016C5.99521 48.9404 6.417 47.9227 7.16756 47.1725C7.5392 46.801 7.98037 46.5064 8.46588 46.3054C8.95139 46.1044 9.47173 46.0011 9.9972 46.0012C10.5227 46.0013 11.043 46.1049 11.5284 46.3061C12.0138 46.5073 12.4548 46.8021 12.8263 47.1738C13.1978 47.5454 13.4924 47.9866 13.6934 48.4721C13.8944 48.9576 13.9978 49.4779 13.9977 50.0034C13.9975 50.5289 13.8939 51.0492 13.6927 51.5346C13.4915 52.02 13.1967 52.461 12.8251 52.8325ZM21.1701 26.8325C20.7985 26.4611 20.5038 26.0201 20.3027 25.5347C20.1017 25.0493 19.9982 24.5291 19.9982 24.0038C19.9982 23.4784 20.1017 22.9582 20.3027 22.4728C20.5038 21.9875 20.7985 21.5465 21.1701 21.175C21.7295 20.6157 22.4422 20.2348 23.2181 20.0805C23.994 19.9263 24.7983 20.0055 25.5291 20.3083C26.26 20.6111 26.8846 21.1238 27.3241 21.7816C27.7636 22.4394 27.9982 23.2127 27.9982 24.0038C27.9982 24.7948 27.7636 25.5682 27.3241 26.2259C26.8846 26.8837 26.26 27.3964 25.5291 27.6992C24.7983 28.002 23.994 28.0812 23.2181 27.927C22.4422 27.7727 21.7295 27.3918 21.1701 26.8325ZM42.8301 42.8325C42.0798 43.5827 41.0623 44.0042 40.0013 44.0042C38.9403 44.0042 37.9228 43.5827 37.1726 42.8325C36.4223 42.0823 36.0009 41.0647 36.0009 40.0038C36.0009 38.9428 36.4223 37.9252 37.1726 37.175C37.9228 36.4248 38.9403 36.0033 40.0013 36.0033C41.0623 36.0033 42.0798 36.4248 42.8301 37.175C43.5803 37.9252 44.0018 38.9428 44.0018 40.0038C44.0018 41.0647 43.5803 42.0823 42.8301 42.8325ZM56.8301 16.8325C56.0788 17.5824 55.0605 18.0032 53.999 18.0022C52.9376 18.0013 51.92 17.5787 51.1701 16.8275C50.4202 16.0763 49.9994 15.0579 50.0003 13.9965C50.0013 12.935 50.4238 11.9174 51.1751 11.1675C51.5467 10.796 51.9879 10.5014 52.4734 10.3004C52.9589 10.0994 53.4792 9.99605 54.0047 9.99617C54.5302 9.99628 55.0505 10.0999 55.5359 10.3011C56.0213 10.5023 56.4623 10.7971 56.8338 11.1688C57.2053 11.5404 57.4999 11.9816 57.7009 12.4671C57.9019 12.9526 58.0053 13.4729 58.0051 13.9984C58.005 14.5239 57.9014 15.0442 57.7002 15.5296C57.499 16.015 57.2042 16.456 56.8326 16.8275L56.8301 16.8325Z" fill="#E35100"/>
</svg>
